<svg version="1.1" xmlns="http://www.w3.org/2000/svg" x="0px" y="0px" viewBox="0 0 24 24" style="enable-background:new 0 0 24 24;" xmlns:xlink="http://www.w3.org/1999/xlink" xml:space="preserve"><path fill="currentColor" d="M22,8c0-1.1-0.9-2-2-2h-2.7c-0.9-3.4-2.9-5.8-5.3-5.8C9.6,0.2,7.6,2.6,6.7,6H4C2.9,6,2,6.9,2,8L0,22l0,0.1&#10;&#9;C0,23.2,0.9,24,2,24h20c1.1,0,2-0.8,2-1.9l0-0.1L22,8z M12,1.8c1.5,0,2.9,1.7,3.6,4.2H8.4C9.1,3.5,10.5,1.8,12,1.8z M22,22.4H2&#10;&#9;c-0.2,0-0.4-0.1-0.4-0.3l2-13.8l0-0.2c0-0.2,0.2-0.4,0.4-0.4h2.4C6.3,8.4,6.2,9.2,6.2,10h1.6c0-0.8,0.1-1.6,0.2-2.4h8&#10;&#9;c0.1,0.8,0.2,1.6,0.2,2.4h1.6c0-0.8-0.1-1.6-0.2-2.4H20c0.2,0,0.4,0.2,0.4,0.5l2,14C22.4,22.3,22.2,22.4,22,22.4z"/></svg>