<svg version="1.1" xmlns="http://www.w3.org/2000/svg" x="0px" y="0px" viewBox="0 0 24 24" style="enable-background:new 0 0 24 24;" xmlns:xlink="http://www.w3.org/1999/xlink" xml:space="preserve"><g><path fill="currentColor" d="M12,13C6.4,13,2,17.8,2,24h20C22,17.8,17.6,13,12,13z M12,14.6c4.2,0,7.6,3.3,8.3,7.8H3.7&#10;&#9;&#9;C4.4,17.9,7.8,14.6,12,14.6z"/><path fill="currentColor" d="M12,12c3.3,0,6-2.7,6-6s-2.7-6-6-6S6,2.7,6,6S8.7,12,12,12z M12,1.6c2.4,0,4.4,2,4.4,4.4s-2,4.4-4.4,4.4&#10;&#9;&#9;c-2.4,0-4.4-2-4.4-4.4S9.6,1.6,12,1.6z"/></g></svg>