<svg class="insta-feed-info__icons" viewBox="0 0 24 24" fill="none" xmlns="http://www.w3.org/2000/svg"><path d="M11.9999 4.62165C14.403 4.62165 14.6877 4.63084 15.6368 4.67414C16.5143 4.71418 16.9908 4.86077 17.3079 4.98402C17.6988 5.1283 18.0525 5.35835 18.3428 5.65727C18.6417 5.94757 18.8717 6.30118 19.016 6.69209C19.1392 7.00923 19.2859 7.48577 19.3259 8.36326C19.3692 9.31231 19.3784 9.59694 19.3784 12.0001C19.3784 14.4033 19.3692 14.6879 19.3259 15.637C19.2858 16.5145 19.1392 16.991 19.016 17.3082C18.8663 17.6963 18.6369 18.0488 18.3428 18.343C18.0486 18.6372 17.6961 18.8665 17.3079 19.0162C16.9908 19.1395 16.5143 19.2861 15.6368 19.3261C14.6879 19.3694 14.4033 19.3786 11.9999 19.3786C9.5966 19.3786 9.31208 19.3694 8.36311 19.3261C7.48563 19.2861 7.00913 19.1394 6.69196 19.0162C6.30105 18.872 5.94744 18.6419 5.65714 18.343C5.35823 18.0527 5.12817 17.6991 4.9839 17.3082C4.86064 16.991 4.71403 16.5145 4.67401 15.637C4.63072 14.688 4.62153 14.4033 4.62153 12.0001C4.62153 9.59694 4.63072 9.31238 4.67401 8.36326C4.71406 7.48577 4.86064 7.00926 4.9839 6.69209C5.12819 6.30116 5.35827 5.94754 5.65721 5.65723C5.94752 5.35832 6.30112 5.12826 6.69203 4.98398C7.00916 4.86073 7.4857 4.71411 8.36319 4.6741C9.31223 4.6308 9.59685 4.62162 12 4.62162L11.9999 4.62165ZM12 3C9.55577 3 9.24917 3.01036 8.28938 3.05416C7.3314 3.09789 6.6772 3.25001 6.10474 3.47251C5.50422 3.69849 4.96022 4.05275 4.51068 4.51058C4.05275 4.9601 3.69839 5.50411 3.47232 6.10466C3.25001 6.67716 3.09789 7.33137 3.05434 8.28935C3.01036 9.24915 3 9.55575 3 12C3 14.4443 3.01036 14.7509 3.05434 15.7107C3.09807 16.6687 3.25018 17.3229 3.47268 17.8953C3.69867 18.4959 4.05292 19.0399 4.51075 19.4894C4.96029 19.9472 5.50429 20.3015 6.10481 20.5275C6.67731 20.75 7.33151 20.9021 8.28945 20.9458C9.24939 20.9896 9.55587 21 12.0001 21C14.4443 21 14.7509 20.9896 15.7107 20.9458C16.6687 20.9021 17.3229 20.75 17.8954 20.5275C18.4932 20.2963 19.0362 19.9427 19.4894 19.4894C19.9427 19.0362 20.2963 18.4932 20.5275 17.8953C20.75 17.3228 20.9021 16.6686 20.9458 15.7107C20.9896 14.7507 21 14.4443 21 12C21 9.55578 20.9896 9.24915 20.9458 8.28935C20.9021 7.33137 20.75 6.67716 20.5275 6.10469C20.3015 5.50417 19.9473 4.96016 19.4894 4.51062C19.0399 4.0527 18.4958 3.69836 17.8953 3.47233C17.3228 3.25001 16.6686 3.09789 15.7106 3.05434C14.7508 3.01036 14.4442 3 11.9999 3H12Z" fill="currentColor"/><path d="M11.9999 7.37838C11.0859 7.37838 10.1923 7.64944 9.43232 8.15727C8.6723 8.6651 8.07994 9.3869 7.73015 10.2314C7.38035 11.0759 7.28882 12.0051 7.46715 12.9017C7.64547 13.7982 8.08564 14.6217 8.73198 15.268C9.37832 15.9144 10.2018 16.3545 11.0983 16.5329C11.9948 16.7112 12.9241 16.6197 13.7686 16.2699C14.613 15.9201 15.3348 15.3277 15.8427 14.5677C16.3505 13.8076 16.6215 12.9141 16.6215 12C16.6215 10.7743 16.1346 9.59875 15.2679 8.73203C14.4012 7.8653 13.2257 7.37838 11.9999 7.37838ZM11.9999 15C11.4066 15 10.8266 14.824 10.3333 14.4944C9.83993 14.1647 9.45543 13.6962 9.22837 13.148C9.00132 12.5999 8.94191 11.9967 9.05767 11.4147C9.17343 10.8328 9.45915 10.2982 9.8787 9.8787C10.2983 9.45915 10.8328 9.17343 11.4147 9.05768C11.9967 8.94193 12.5999 9.00134 13.148 9.2284C13.6962 9.45546 14.1647 9.83998 14.4944 10.3333C14.824 10.8267 14.9999 11.4067 14.9999 12C14.9999 12.7957 14.6839 13.5587 14.1213 14.1213C13.5586 14.6839 12.7956 15 11.9999 15Z" fill="currentColor"/><path d="M16.8041 8.27577C17.4006 8.27577 17.8841 7.79225 17.8841 7.19579C17.8841 6.59933 17.4006 6.1158 16.8041 6.1158C16.2077 6.1158 15.7242 6.59933 15.7242 7.19579C15.7242 7.79225 16.2077 8.27577 16.8041 8.27577Z" fill="currentColor"/></svg>