<svg class="insta-feed-info__icons" viewBox="0 0 24 24" fill="none" xmlns="http://www.w3.org/2000/svg"><path d="M13.9094 8.04492C13.9094 7.5293 14.0125 7.11328 14.2188 6.79688C14.4365 6.48047 14.9062 6.32227 15.6281 6.32227L17.4672 6.30469V3.14062C17.3068 3.11719 16.9745 3.08789 16.4703 3.05273C15.9776 3.01758 15.4161 3 14.7859 3C14.1214 3 13.5141 3.09375 12.9641 3.28125C12.4141 3.45703 11.9385 3.73242 11.5375 4.10742C11.1479 4.48242 10.8443 4.95117 10.6266 5.51367C10.4089 6.07617 10.3 6.73828 10.3 7.5V9.75H7V13.125H10.3L10.3172 21H13.9094V13.125H16.9L18 9.75H13.9094V8.04492Z" fill="currentColor"/></svg>