<svg viewBox="0 0 24 24" fill="none" xmlns="http://www.w3.org/2000/svg"><path d="M21 6.76683C20.6719 6.92308 20.3262 7.05529 19.9629 7.16346C19.6113 7.25962 19.248 7.33173 18.873 7.37981C19.2598 7.13942 19.5938 6.83894 19.875 6.47837C20.1562 6.11779 20.3672 5.71514 20.5078 5.27043C20.1445 5.48678 19.7637 5.67308 19.3652 5.82933C18.9785 5.98558 18.5742 6.10577 18.1523 6.1899C17.8242 5.82933 17.4258 5.54087 16.957 5.32452C16.4883 5.10817 15.9902 5 15.4629 5C14.9473 5 14.4668 5.10216 14.0215 5.30649C13.5762 5.4988 13.1836 5.76923 12.8438 6.11779C12.5156 6.45433 12.252 6.85096 12.0527 7.30769C11.8652 7.76442 11.7715 8.25721 11.7715 8.78606C11.7715 8.93029 11.7773 9.07452 11.7891 9.21875C11.8125 9.36298 11.8359 9.50721 11.8594 9.65144C11.0977 9.61538 10.3535 9.49519 9.62695 9.29087C8.91211 9.08654 8.23242 8.81611 7.58789 8.47957C6.94336 8.13101 6.33984 7.72236 5.77734 7.25361C5.21484 6.78486 4.70508 6.26202 4.24805 5.6851C4.0957 5.97356 3.97266 6.28005 3.87891 6.60457C3.79688 6.91707 3.75586 7.2476 3.75586 7.59615C3.75586 8.25721 3.90234 8.86418 4.19531 9.41707C4.5 9.96995 4.89844 10.4147 5.39062 10.7512C5.08594 10.7392 4.79297 10.6911 4.51172 10.607C4.23047 10.5228 3.9668 10.4147 3.7207 10.2825C3.7207 10.2825 3.7207 10.2885 3.7207 10.3005C3.7207 10.3125 3.7207 10.3185 3.7207 10.3185C3.7207 11.244 4.00195 12.0553 4.56445 12.7524C5.13867 13.4375 5.84766 13.8642 6.69141 14.0325C6.52734 14.0805 6.36328 14.1166 6.19922 14.1406C6.04688 14.1647 5.88281 14.1767 5.70703 14.1767C5.58984 14.1767 5.47266 14.1707 5.35547 14.1587C5.23828 14.1466 5.12695 14.1286 5.02148 14.1046C5.25586 14.8498 5.68359 15.4688 6.30469 15.9615C6.9375 16.4543 7.6582 16.7127 8.4668 16.7368C7.83398 17.2416 7.125 17.6382 6.33984 17.9267C5.56641 18.2151 4.74609 18.3594 3.87891 18.3594C3.72656 18.3594 3.57422 18.3534 3.42188 18.3413C3.28125 18.3293 3.14062 18.3173 3 18.3053C3.41016 18.5697 3.83789 18.8101 4.2832 19.0264C4.72852 19.2308 5.18555 19.405 5.6543 19.5493C6.13477 19.6935 6.62695 19.8077 7.13086 19.8918C7.63477 19.9639 8.14453 20 8.66016 20C10.3594 20 11.8594 19.6755 13.1602 19.0264C14.4727 18.3654 15.5742 17.518 16.4648 16.4844C17.3555 15.4507 18.0293 14.2969 18.4863 13.0228C18.9434 11.7368 19.1719 10.4688 19.1719 9.21875C19.1719 9.14663 19.166 9.06851 19.1543 8.98438C19.1543 8.90024 19.1543 8.81611 19.1543 8.73197C19.5176 8.46755 19.8516 8.17308 20.1562 7.84856C20.4727 7.51202 20.7539 7.15144 21 6.76683Z" fill="currentColor"/></svg>