<svg viewBox="0 0 24 24" fill="none" xmlns="http://www.w3.org/2000/svg"><path d="M20.8242 8.26302C20.7188 7.5217 20.4668 6.90799 20.0684 6.42188C19.6816 5.92361 19.1074 5.59549 18.3457 5.4375C17.7246 5.32812 17.0449 5.24306 16.3066 5.18229C15.5684 5.12153 14.877 5.07899 14.2324 5.05469C13.5996 5.03038 13.0664 5.01823 12.6328 5.01823C12.2109 5.00608 12 5 12 5C12 5 11.7832 5.00608 11.3496 5.01823C10.9277 5.01823 10.3945 5.03038 9.75 5.05469C9.11719 5.07899 8.43164 5.12153 7.69336 5.18229C6.95508 5.24306 6.27539 5.32812 5.6543 5.4375C4.89258 5.59549 4.3125 5.92361 3.91406 6.42188C3.52734 6.90799 3.28125 7.5217 3.17578 8.26302C3.08203 9.01649 3.0293 9.83073 3.01758 10.7057C3.00586 11.5686 3 12 3 12C3 12 3.00586 12.4375 3.01758 13.3125C3.0293 14.1753 3.08203 14.9835 3.17578 15.737C3.28125 16.4783 3.52734 17.0981 3.91406 17.5964C4.3125 18.0825 4.89258 18.4045 5.6543 18.5625C6.27539 18.6719 6.95508 18.7569 7.69336 18.8177C8.43164 18.8785 9.11719 18.921 9.75 18.9453C10.3945 18.9696 10.9277 18.9878 11.3496 19C11.7832 19 12 19 12 19C12 19 12.2109 19 12.6328 19C13.0664 18.9878 13.5996 18.9696 14.2324 18.9453C14.877 18.921 15.5684 18.8785 16.3066 18.8177C17.0449 18.7569 17.7246 18.6719 18.3457 18.5625C19.1074 18.4045 19.6816 18.0825 20.0684 17.5964C20.4668 17.0981 20.7188 16.4783 20.8242 15.737C20.918 14.9835 20.9707 14.1753 20.9824 13.3125C20.9941 12.4375 21 12 21 12C21 12 20.9941 11.5686 20.9824 10.7057C20.9707 9.83073 20.918 9.01649 20.8242 8.26302ZM9.75 15.5V8.5L15.375 12L9.75 15.5Z" fill="currentColor"/></svg>